<svg width="96" height="96" viewBox="0 0 96 96" fill="none" xmlns="http://www.w3.org/2000/svg">
  <defs>
    <linearGradient id="g1" x1="12" y1="18" x2="84" y2="78" gradientUnits="userSpaceOnUse">
      <stop stop-color="#5CF0FF"/>
      <stop offset="0.5" stop-color="#FF6BD6"/>
      <stop offset="1" stop-color="#FFD166"/>
    </linearGradient>
    <radialGradient id="g2" cx="48" cy="48" r="46" gradientUnits="userSpaceOnUse">
      <stop stop-color="#0A1018"/>
      <stop offset="1" stop-color="#05080F"/>
    </radialGradient>
  </defs>
  <circle cx="48" cy="48" r="46" fill="url(#g2)" stroke="rgba(255,255,255,0.08)" stroke-width="2"/>
  <path d="M28 30C28 26.6863 30.6863 24 34 24H62C65.3137 24 68 26.6863 68 30V42.5C68 45.8137 65.3137 48.5 62 48.5H52L44 60H62C65.3137 60 68 62.6863 68 66V70C68 73.3137 65.3137 76 62 76H34C30.6863 76 28 73.3137 28 70V57.5C28 54.1863 30.6863 51.5 34 51.5H44L52 40H34C30.6863 40 28 37.3137 28 34V30Z" fill="url(#g1)"/>
  <circle cx="48" cy="48" r="47" stroke="rgba(92,240,255,0.2)" stroke-width="2" stroke-dasharray="6 6"/>
</svg>

